<svg xmlns="http://www.w3.org/2000/svg" width="152.925" height="62.302" viewBox="0 0 152.925 62.302"><defs><style>.a,.b{fill:#610082;}.a{font-size:9px;font-family:Roboto-Regular, Roboto;}.c{fill:#00c6c9;}</style></defs><g transform="translate(-74.825 -74.698)"><text class="a" transform="translate(78 135)"><tspan x="0" y="0">Coleta e análise de dados inteligente</tspan></text><g transform="translate(-514.175 -349.302)"><g transform="translate(642.439 428.741)"><path class="b" d="M75.42,36.71c-3.938,0-6.027-2.33-6.027-6.589V20.638H66.5V17.022h2.893V12.843l5.143-.643v4.822h4.42l-.482,3.616H74.536v9.4c0,1.848.643,2.572,1.929,2.572a4.1,4.1,0,0,0,2.17-.723L80.4,35.183A8.486,8.486,0,0,1,75.42,36.71Z" transform="translate(-66.5 -7.137)"/><path class="b" d="M102.017,29.113H90.043c.321,3.7,2.089,4.741,4.581,4.741a7.575,7.575,0,0,0,4.661-1.688l2.17,2.893a11.129,11.129,0,0,1-7.232,2.572c-6.107,0-9.322-4.018-9.322-10.045C84.9,21.8,88.034,17.3,93.579,17.3c5.384,0,8.6,3.616,8.6,9.724C102.1,27.827,102.017,28.631,102.017,29.113Zm-4.982-3.375c0-2.893-.964-4.741-3.455-4.741-2.009,0-3.295,1.366-3.536,4.982h6.991v-.241Z" transform="translate(-70.114 -8.139)"/><path class="b" d="M127.072,23.286v13.9h-5.143v-13.1c0-2.17-.8-2.813-2.089-2.813-1.446,0-2.652.964-3.7,2.652V37.188H111V18.063h4.42l.4,2.411a7.091,7.091,0,0,1,5.866-2.973C125.063,17.5,127.072,19.67,127.072,23.286Z" transform="translate(-75.24 -8.178)"/><path class="b" d="M149.829,19.711,147.9,22.684a8.368,8.368,0,0,0-4.661-1.607c-1.848,0-2.813.723-2.813,1.768,0,1.125.643,1.607,4.018,2.572,3.857,1.045,6.027,2.652,6.027,6.027,0,3.938-3.7,6.188-8.277,6.188a11.2,11.2,0,0,1-7.795-2.813l2.572-2.893a8.415,8.415,0,0,0,5.063,1.929c1.929,0,3.214-.8,3.214-2.089,0-1.446-.723-1.929-4.259-2.893-3.857-1.045-5.706-2.973-5.706-5.866,0-3.214,2.973-5.706,7.554-5.706A11.771,11.771,0,0,1,149.829,19.711Z" transform="translate(-79.836 -8.139)"/><path class="b" d="M174.358,34.276l-1.045,3.375c-2.17-.161-3.616-.884-4.42-2.813a6.45,6.45,0,0,1-5.706,2.893c-3.857,0-6.188-2.491-6.188-5.947,0-4.179,3.134-6.429,8.84-6.429h2.17v-.964c0-2.411-1.045-3.134-3.455-3.134a15.316,15.316,0,0,0-5.063,1.045l-1.125-3.455a19.5,19.5,0,0,1,7.072-1.446c5.3,0,7.554,2.33,7.554,6.67v7.715C172.911,33.392,173.393,33.954,174.358,34.276Zm-6.429-2.33V28.329h-1.688c-2.813,0-4.179,1.045-4.179,3.134a2.332,2.332,0,0,0,2.491,2.652A4.02,4.02,0,0,0,167.929,31.945Z" transform="translate(-84.274 -8.159)"/><path class="b" d="M188.768,8.873A3.138,3.138,0,1,1,185.634,5.9,3.005,3.005,0,0,1,188.768,8.873ZM183.063,34.91V15.784h5.143V34.91Z" transform="translate(-89.283 -5.9)"/></g><g transform="translate(589 424)"><path class="b" d="M12.179,8.723a2.443,2.443,0,0,0-3.455,3.455l6.027,6.027a2.522,2.522,0,0,0,3.536,0,2.425,2.425,0,0,0,0-3.455Z" transform="translate(-1.571 -1.571)"/><path class="b" d="M13.34,29.611A2.418,2.418,0,0,0,10.929,27.2H2.411a2.411,2.411,0,0,0,0,4.822h8.518A2.321,2.321,0,0,0,13.34,29.611Z" transform="translate(0 -5.342)"/><path class="b" d="M14.65,39.723,8.623,45.75a2.425,2.425,0,0,0,0,3.455,2.522,2.522,0,0,0,3.536,0l6.027-6.027a2.425,2.425,0,0,0,0-3.455A2.522,2.522,0,0,0,14.65,39.723Z" transform="translate(-1.552 -7.66)"/><path class="b" d="M41.411,18.829a2.493,2.493,0,0,0,1.768-.723l6.027-6.027A2.443,2.443,0,0,0,45.75,8.623L39.723,14.65a2.425,2.425,0,0,0,0,3.455A2.313,2.313,0,0,0,41.411,18.829Z" transform="translate(-7.66 -1.552)"/><path class="b" d="M29.611,13.34a2.418,2.418,0,0,0,2.411-2.411V2.411a2.411,2.411,0,0,0-4.822,0v8.518A2.418,2.418,0,0,0,29.611,13.34Z" transform="translate(-5.342)"/><path class="c" d="M29.591,27.2H47.11a2.559,2.559,0,0,1,2.572,2.411A2.436,2.436,0,0,1,47.27,32.1H35.538l11.25,11.25a2.425,2.425,0,0,1,0,3.455,2.522,2.522,0,0,1-3.536,0L32,35.557h0V47.129A2.559,2.559,0,0,1,29.591,49.7,2.436,2.436,0,0,1,27.1,47.29V29.611h0A2.487,2.487,0,0,1,29.591,27.2Z" transform="translate(-5.323 -5.342)"/></g></g></g></svg>